<svg width="20" height="20" viewBox="0 0 20 20" fill="none" xmlns="http://www.w3.org/2000/svg">
<path d="M10 0C4.48571 0 0 4.48571 0 10C0 15.5143 4.48571 20 10 20C15.5143 20 20 15.5143 20 10C20 4.48571 15.5143 0 10 0ZM10 1.42857C14.7429 1.42857 18.5714 5.25714 18.5714 10C18.5714 14.7429 14.7429 18.5714 10 18.5714C5.25714 18.5714 1.42857 14.7429 1.42857 10C1.42857 5.25714 5.25714 1.42857 10 1.42857ZM14.4943 5.92286L7.85714 12.5586L5.50714 10.2086L4.49429 11.22L7.85714 14.5814L15.5071 6.93429L14.4943 5.92286Z" fill="white"/>
</svg>
