<svg width="33" height="32" viewBox="0 0 33 32" fill="none" xmlns="http://www.w3.org/2000/svg">
<path d="M7.9266 20.8C7.70779 20.4325 7.3474 20.1644 6.92472 20.0546C6.50203 19.9447 6.05167 20.0022 5.6727 20.2144L2.8149 21.8144C2.43902 22.0281 2.16556 22.3773 2.05419 22.7857C1.94282 23.1942 2.00259 23.6288 2.22045 23.9947C2.43831 24.3606 2.79657 24.6281 3.21706 24.7388C3.63755 24.8495 4.08613 24.7944 4.4649 24.5856L7.3227 22.9856C7.70166 22.7734 7.97818 22.424 8.09143 22.0141C8.20469 21.6042 8.14539 21.1675 7.9266 20.8ZM2.8149 10.1856L5.6727 11.7856C5.86042 11.8923 6.06806 11.962 6.28365 11.9906C6.49925 12.0191 6.71855 12.0061 6.92892 11.9522C7.13929 11.8982 7.33659 11.8045 7.50945 11.6763C7.6823 11.5481 7.82731 11.3881 7.93611 11.2053C8.04491 11.0226 8.11537 10.8208 8.14341 10.6115C8.17146 10.4023 8.15655 10.1897 8.09954 9.98609C8.04252 9.78246 7.94453 9.59177 7.81121 9.425C7.67789 9.25824 7.51187 9.11869 7.3227 9.0144L4.4649 7.4144C4.08613 7.20557 3.63755 7.1505 3.21706 7.2612C2.79657 7.3719 2.43831 7.63939 2.22045 8.00529C2.00259 8.37119 1.94282 8.8058 2.05419 9.21427C2.16556 9.62274 2.43902 9.97192 2.8149 10.1856ZM6.6 16C6.6 15.5757 6.42616 15.1687 6.11673 14.8686C5.80729 14.5686 5.38761 14.4 4.95 14.4H1.65C1.21239 14.4 0.792709 14.5686 0.483274 14.8686C0.173839 15.1687 0 15.5757 0 16C0 16.4243 0.173839 16.8313 0.483274 17.1314C0.792709 17.4314 1.21239 17.6 1.65 17.6H4.95C5.38761 17.6 5.80729 17.4314 6.11673 17.1314C6.42616 16.8313 6.6 16.4243 6.6 16ZM25.0734 11.2C25.2922 11.5675 25.6526 11.8356 26.0753 11.9454C26.498 12.0553 26.9483 11.9978 27.3273 11.7856L30.1851 10.1856C30.3743 10.0813 30.5403 9.94176 30.6736 9.775C30.8069 9.60823 30.9049 9.41754 30.9619 9.21391C31.019 9.01027 31.0339 8.79771 31.0058 8.58846C30.9778 8.37921 30.9073 8.17741 30.7985 7.99468C30.6897 7.81194 30.5447 7.65188 30.3718 7.5237C30.199 7.39553 30.0017 7.30178 29.7913 7.24784C29.5809 7.19391 29.3616 7.18086 29.1461 7.20944C28.9305 7.23803 28.7228 7.30768 28.5351 7.4144L25.6773 9.0144C25.2983 9.22658 25.0218 9.57605 24.9086 9.98592C24.7953 10.3958 24.8546 10.8325 25.0734 11.2ZM21.45 7.6864C21.829 7.89856 22.2793 7.95606 22.702 7.84624C23.1247 7.73642 23.4851 7.46828 23.7039 7.1008L25.3539 4.3296C25.4639 4.14757 25.5358 3.94622 25.5653 3.73716C25.5947 3.5281 25.5813 3.31544 25.5257 3.11145C25.47 2.90745 25.3734 2.71613 25.2412 2.54851C25.109 2.38089 24.9439 2.24028 24.7555 2.13478C24.567 2.02927 24.3589 1.96095 24.1431 1.93376C23.9274 1.90656 23.7082 1.92102 23.4982 1.9763C23.2882 2.03159 23.0915 2.12661 22.9195 2.25589C22.7476 2.38518 22.6037 2.54617 22.4961 2.7296L20.8461 5.5008C20.6273 5.86829 20.568 6.305 20.6813 6.71488C20.7945 7.12475 21.071 7.47422 21.45 7.6864ZM30.1851 21.8144L27.3273 20.2144C27.1396 20.1077 26.9319 20.038 26.7163 20.0094C26.5007 19.9809 26.2815 19.9939 26.0711 20.0478C25.8607 20.1018 25.6634 20.1955 25.4906 20.3237C25.3177 20.4519 25.1727 20.6119 25.0639 20.7947C24.9551 20.9774 24.8846 21.1792 24.8566 21.3885C24.8285 21.5977 24.8435 21.8103 24.9005 22.0139C24.9575 22.2175 25.0555 22.4082 25.1888 22.575C25.3221 22.7418 25.4881 22.8813 25.6773 22.9856L28.5351 24.5856C28.9139 24.7944 29.3624 24.8495 29.7829 24.7388C30.2034 24.6281 30.5617 24.3606 30.7796 23.9947C30.9974 23.6288 31.0572 23.1942 30.9458 22.7857C30.8344 22.3773 30.561 22.0281 30.1851 21.8144ZM23.7039 24.8992C23.5963 24.7158 23.4524 24.5548 23.2805 24.4255C23.1085 24.2962 22.9118 24.2012 22.7018 24.1459C22.4918 24.0906 22.2726 24.0762 22.0569 24.1034C21.8411 24.1306 21.633 24.1989 21.4445 24.3044C21.2561 24.4099 21.091 24.5505 20.9588 24.7181C20.8266 24.8857 20.73 25.077 20.6743 25.281C20.6187 25.485 20.6053 25.6977 20.6347 25.9068C20.6642 26.1158 20.736 26.3172 20.8461 26.4992L22.4961 29.2704C22.6037 29.4538 22.7476 29.6148 22.9195 29.7441C23.0915 29.8734 23.2882 29.9684 23.4982 30.0237C23.7082 30.079 23.9274 30.0934 24.1431 30.0662C24.3589 30.039 24.567 29.9707 24.7555 29.8652C24.9439 29.7597 25.109 29.6191 25.2412 29.4515C25.3734 29.2839 25.47 29.0926 25.5257 28.8886C25.5813 28.6846 25.5947 28.4719 25.5653 28.2628C25.5358 28.0538 25.4639 27.8524 25.3539 27.6704L23.7039 24.8992ZM31.35 14.4H28.05C27.6124 14.4 27.1927 14.5686 26.8833 14.8686C26.5738 15.1687 26.4 15.5757 26.4 16C26.4 16.4243 26.5738 16.8313 26.8833 17.1314C27.1927 17.4314 27.6124 17.6 28.05 17.6H31.35C31.7876 17.6 32.2073 17.4314 32.5167 17.1314C32.8262 16.8313 33 16.4243 33 16C33 15.5757 32.8262 15.1687 32.5167 14.8686C32.2073 14.5686 31.7876 14.4 31.35 14.4ZM16.5 25.6C16.0624 25.6 15.6427 25.7686 15.3333 26.0686C15.0238 26.3687 14.85 26.7757 14.85 27.2V30.4C14.85 30.8243 15.0238 31.2313 15.3333 31.5314C15.6427 31.8314 16.0624 32 16.5 32C16.9376 32 17.3573 31.8314 17.6667 31.5314C17.9762 31.2313 18.15 30.8243 18.15 30.4V27.2C18.15 26.7757 17.9762 26.3687 17.6667 26.0686C17.3573 25.7686 16.9376 25.6 16.5 25.6ZM11.55 24.3136C11.171 24.1014 10.7207 24.0439 10.298 24.1538C9.8753 24.2636 9.51491 24.5317 9.2961 24.8992L7.6461 27.6704C7.43075 28.0377 7.37395 28.4727 7.48811 28.8804C7.60227 29.2882 7.87812 29.6356 8.25546 29.8468C8.63279 30.0581 9.08098 30.1161 9.50222 30.0081C9.92345 29.9001 10.2835 29.6349 10.5039 29.2704L12.1539 26.4992C12.3727 26.1317 12.432 25.695 12.3187 25.2851C12.2055 24.8752 11.929 24.5258 11.55 24.3136ZM16.5 0C16.0624 0 15.6427 0.168571 15.3333 0.468629C15.0238 0.768687 14.85 1.17565 14.85 1.6V4.8C14.85 5.22435 15.0238 5.63131 15.3333 5.93137C15.6427 6.23143 16.0624 6.4 16.5 6.4C16.9376 6.4 17.3573 6.23143 17.6667 5.93137C17.9762 5.63131 18.15 5.22435 18.15 4.8V1.6C18.15 1.17565 17.9762 0.768687 17.6667 0.468629C17.3573 0.168571 16.9376 0 16.5 0Z" fill="white"/>
</svg>
